<?xml version="1.0" encoding="UTF-8" ?>
<svg version="1.1" width="300" height="300" xmlns="http://www.w3.org/2000/svg" shape-rendering="crispEdges">
<rect x="49" y="49" width="14" height="14" fill="#D95763" />
<rect x="65" y="49" width="14" height="14" fill="#D95763" />
<rect x="81" y="49" width="14" height="14" fill="#D95763" />
<rect x="145" y="49" width="14" height="14" fill="#D95763" />
<rect x="161" y="49" width="14" height="14" fill="#D95763" />
<rect x="177" y="49" width="14" height="14" fill="#D95763" />
<rect x="33" y="65" width="14" height="14" fill="#D95763" />
<rect x="49" y="65" width="14" height="14" fill="#D95763" />
<rect x="65" y="65" width="14" height="14" fill="#D95763" />
<rect x="81" y="65" width="14" height="14" fill="#D95763" />
<rect x="97" y="65" width="14" height="14" fill="#D95763" />
<rect x="129" y="65" width="14" height="14" fill="#D95763" />
<rect x="145" y="65" width="14" height="14" fill="#D95763" />
<rect x="161" y="65" width="14" height="14" fill="#D95763" />
<rect x="177" y="65" width="14" height="14" fill="#D95763" />
<rect x="193" y="65" width="14" height="14" fill="#D95763" />
<rect x="17" y="81" width="14" height="14" fill="#D95763" />
<rect x="33" y="81" width="14" height="14" fill="#D95763" />
<rect x="49" y="81" width="14" height="14" fill="#D95763" />
<rect x="65" y="81" width="14" height="14" fill="#D95763" />
<rect x="81" y="81" width="14" height="14" fill="#D95763" />
<rect x="97" y="81" width="14" height="14" fill="#D95763" />
<rect x="113" y="81" width="14" height="14" fill="#D95763" />
<rect x="129" y="81" width="14" height="14" fill="#D95763" />
<rect x="145" y="81" width="14" height="14" fill="#D95763" />
<rect x="161" y="81" width="14" height="14" fill="#D95763" />
<rect x="177" y="81" width="14" height="14" fill="#D95763" />
<rect x="193" y="81" width="14" height="14" fill="#D95763" />
<rect x="209" y="81" width="14" height="14" fill="#D95763" />
<rect x="17" y="97" width="14" height="14" fill="#D95763" />
<rect x="33" y="97" width="14" height="14" fill="#D95763" />
<rect x="49" y="97" width="14" height="14" fill="#D95763" />
<rect x="65" y="97" width="14" height="14" fill="#D95763" />
<rect x="81" y="97" width="14" height="14" fill="#D95763" />
<rect x="97" y="97" width="14" height="14" fill="#D95763" />
<rect x="113" y="97" width="14" height="14" fill="#D95763" />
<rect x="129" y="97" width="14" height="14" fill="#D95763" />
<rect x="145" y="97" width="14" height="14" fill="#D95763" />
<rect x="161" y="97" width="14" height="14" fill="#D95763" />
<rect x="177" y="97" width="14" height="14" fill="#D95763" />
<rect x="193" y="97" width="14" height="14" fill="#D95763" />
<rect x="209" y="97" width="14" height="14" fill="#D95763" />
<rect x="17" y="113" width="14" height="14" fill="#D95763" />
<rect x="33" y="113" width="14" height="14" fill="#D95763" />
<rect x="49" y="113" width="14" height="14" fill="#D95763" />
<rect x="65" y="113" width="14" height="14" fill="#D95763" />
<rect x="81" y="113" width="14" height="14" fill="#D95763" />
<rect x="97" y="113" width="14" height="14" fill="#D95763" />
<rect x="113" y="113" width="14" height="14" fill="#D95763" />
<rect x="129" y="113" width="14" height="14" fill="#D95763" />
<rect x="145" y="113" width="14" height="14" fill="#D95763" />
<rect x="161" y="113" width="14" height="14" fill="#D95763" />
<rect x="177" y="113" width="14" height="14" fill="#D95763" />
<rect x="193" y="113" width="14" height="14" fill="#D95763" />
<rect x="209" y="113" width="14" height="14" fill="#D95763" />
<rect x="17" y="129" width="14" height="14" fill="#D95763" />
<rect x="33" y="129" width="14" height="14" fill="#D95763" />
<rect x="49" y="129" width="14" height="14" fill="#D95763" />
<rect x="65" y="129" width="14" height="14" fill="#D95763" />
<rect x="81" y="129" width="14" height="14" fill="#D95763" />
<rect x="97" y="129" width="14" height="14" fill="#D95763" />
<rect x="113" y="129" width="14" height="14" fill="#D95763" />
<rect x="129" y="129" width="14" height="14" fill="#D95763" />
<rect x="145" y="129" width="14" height="14" fill="#D95763" />
<rect x="161" y="129" width="14" height="14" fill="#D95763" />
<rect x="177" y="129" width="14" height="14" fill="#D95763" />
<rect x="193" y="129" width="14" height="14" fill="#D95763" />
<rect x="209" y="129" width="14" height="14" fill="#D95763" />
<rect x="33" y="145" width="14" height="14" fill="#D95763" />
<rect x="49" y="145" width="14" height="14" fill="#D95763" />
<rect x="65" y="145" width="14" height="14" fill="#D95763" />
<rect x="81" y="145" width="14" height="14" fill="#D95763" />
<rect x="97" y="145" width="14" height="14" fill="#D95763" />
<rect x="113" y="145" width="14" height="14" fill="#D95763" />
<rect x="129" y="145" width="14" height="14" fill="#D95763" />
<rect x="145" y="145" width="14" height="14" fill="#D95763" />
<rect x="161" y="145" width="14" height="14" fill="#D95763" />
<rect x="177" y="145" width="14" height="14" fill="#D95763" />
<rect x="193" y="145" width="14" height="14" fill="#D95763" />
<rect x="49" y="161" width="14" height="14" fill="#D95763" />
<rect x="65" y="161" width="14" height="14" fill="#D95763" />
<rect x="81" y="161" width="14" height="14" fill="#D95763" />
<rect x="97" y="161" width="14" height="14" fill="#D95763" />
<rect x="113" y="161" width="14" height="14" fill="#D95763" />
<rect x="129" y="161" width="14" height="14" fill="#D95763" />
<rect x="145" y="161" width="14" height="14" fill="#D95763" />
<rect x="161" y="161" width="14" height="14" fill="#D95763" />
<rect x="177" y="161" width="14" height="14" fill="#D95763" />
<rect x="65" y="177" width="14" height="14" fill="#D95763" />
<rect x="81" y="177" width="14" height="14" fill="#D95763" />
<rect x="97" y="177" width="14" height="14" fill="#D95763" />
<rect x="113" y="177" width="14" height="14" fill="#D95763" />
<rect x="129" y="177" width="14" height="14" fill="#D95763" />
<rect x="145" y="177" width="14" height="14" fill="#D95763" />
<rect x="161" y="177" width="14" height="14" fill="#D95763" />
<rect x="81" y="193" width="14" height="14" fill="#D95763" />
<rect x="97" y="193" width="14" height="14" fill="#D95763" />
<rect x="113" y="193" width="14" height="14" fill="#D95763" />
<rect x="129" y="193" width="14" height="14" fill="#D95763" />
<rect x="145" y="193" width="14" height="14" fill="#D95763" />
<rect x="97" y="209" width="14" height="14" fill="#D95763" />
<rect x="113" y="209" width="14" height="14" fill="#D95763" />
<rect x="129" y="209" width="14" height="14" fill="#D95763" />
<rect x="113" y="225" width="14" height="14" fill="#D95763" />
</svg>