<?xml version="1.0" encoding="UTF-8" ?>
<svg version="1.1" width="300" height="300" xmlns="http://www.w3.org/2000/svg" shape-rendering="crispEdges">
<rect x="17" y="17" width="270" height="42" fill="#083F00" />
<rect x="17" y="59" width="75" height="228" fill="#083F00" />
<rect x="92" y="59" width="14" height="14" fill="#4FBB0F" />
<rect x="106" y="59" width="2" height="228" fill="#083F00" />
<rect x="108" y="59" width="14" height="14" fill="#4FBB0F" />
<rect x="122" y="59" width="98" height="16" fill="#083F00" />
<rect x="220" y="59" width="14" height="14" fill="#4FBB0F" />
<rect x="234" y="59" width="53" height="228" fill="#083F00" />
<rect x="92" y="73" width="14" height="2" fill="#083F00" />
<rect x="108" y="73" width="14" height="2" fill="#083F00" />
<rect x="220" y="73" width="14" height="2" fill="#083F00" />
<rect x="92" y="75" width="14" height="14" fill="#4FBB0F" />
<rect x="108" y="75" width="14" height="14" fill="#4FBB0F" />
<rect x="122" y="75" width="2" height="212" fill="#083F00" />
<rect x="124" y="75" width="14" height="14" fill="#4FBB0F" />
<rect x="138" y="75" width="82" height="16" fill="#083F00" />
<rect x="220" y="75" width="14" height="14" fill="#4FBB0F" />
<rect x="92" y="89" width="14" height="2" fill="#083F00" />
<rect x="108" y="89" width="14" height="2" fill="#083F00" />
<rect x="124" y="89" width="14" height="2" fill="#083F00" />
<rect x="220" y="89" width="14" height="2" fill="#083F00" />
<rect x="92" y="91" width="14" height="14" fill="#4FBB0F" />
<rect x="108" y="91" width="14" height="14" fill="#4FBB0F" />
<rect x="124" y="91" width="14" height="14" fill="#4FBB0F" />
<rect x="138" y="91" width="2" height="196" fill="#083F00" />
<rect x="140" y="91" width="14" height="14" fill="#4FBB0F" />
<rect x="154" y="91" width="66" height="16" fill="#083F00" />
<rect x="220" y="91" width="14" height="14" fill="#4FBB0F" />
<rect x="92" y="105" width="14" height="2" fill="#083F00" />
<rect x="108" y="105" width="14" height="2" fill="#083F00" />
<rect x="124" y="105" width="14" height="2" fill="#083F00" />
<rect x="140" y="105" width="14" height="2" fill="#083F00" />
<rect x="220" y="105" width="14" height="2" fill="#083F00" />
<rect x="92" y="107" width="14" height="14" fill="#4FBB0F" />
<rect x="108" y="107" width="14" height="14" fill="#4FBB0F" />
<rect x="124" y="107" width="14" height="14" fill="#4FBB0F" />
<rect x="140" y="107" width="14" height="14" fill="#4FBB0F" />
<rect x="154" y="107" width="2" height="180" fill="#083F00" />
<rect x="156" y="107" width="14" height="14" fill="#4FBB0F" />
<rect x="170" y="107" width="50" height="16" fill="#083F00" />
<rect x="220" y="107" width="14" height="14" fill="#4FBB0F" />
<rect x="92" y="121" width="14" height="2" fill="#083F00" />
<rect x="108" y="121" width="14" height="2" fill="#083F00" />
<rect x="124" y="121" width="14" height="2" fill="#083F00" />
<rect x="140" y="121" width="14" height="2" fill="#083F00" />
<rect x="156" y="121" width="14" height="2" fill="#083F00" />
<rect x="220" y="121" width="14" height="2" fill="#083F00" />
<rect x="92" y="123" width="14" height="14" fill="#4FBB0F" />
<rect x="108" y="123" width="14" height="14" fill="#4FBB0F" />
<rect x="124" y="123" width="14" height="14" fill="#4FBB0F" />
<rect x="140" y="123" width="14" height="14" fill="#4FBB0F" />
<rect x="156" y="123" width="14" height="14" fill="#4FBB0F" />
<rect x="170" y="123" width="2" height="164" fill="#083F00" />
<rect x="172" y="123" width="14" height="14" fill="#4FBB0F" />
<rect x="186" y="123" width="34" height="16" fill="#083F00" />
<rect x="220" y="123" width="14" height="14" fill="#4FBB0F" />
<rect x="92" y="137" width="14" height="2" fill="#083F00" />
<rect x="108" y="137" width="14" height="2" fill="#083F00" />
<rect x="124" y="137" width="14" height="2" fill="#083F00" />
<rect x="140" y="137" width="14" height="2" fill="#083F00" />
<rect x="156" y="137" width="14" height="2" fill="#083F00" />
<rect x="172" y="137" width="14" height="2" fill="#083F00" />
<rect x="220" y="137" width="14" height="2" fill="#083F00" />
<rect x="92" y="139" width="14" height="14" fill="#4FBB0F" />
<rect x="108" y="139" width="14" height="14" fill="#4FBB0F" />
<rect x="124" y="139" width="14" height="14" fill="#4FBB0F" />
<rect x="140" y="139" width="14" height="14" fill="#4FBB0F" />
<rect x="156" y="139" width="14" height="14" fill="#4FBB0F" />
<rect x="172" y="139" width="14" height="14" fill="#4FBB0F" />
<rect x="186" y="139" width="2" height="148" fill="#083F00" />
<rect x="188" y="139" width="14" height="14" fill="#4FBB0F" />
<rect x="202" y="139" width="18" height="148" fill="#083F00" />
<rect x="220" y="139" width="14" height="14" fill="#4FBB0F" />
<rect x="92" y="153" width="14" height="2" fill="#083F00" />
<rect x="108" y="153" width="14" height="2" fill="#083F00" />
<rect x="124" y="153" width="14" height="2" fill="#083F00" />
<rect x="140" y="153" width="14" height="2" fill="#083F00" />
<rect x="156" y="153" width="14" height="2" fill="#083F00" />
<rect x="172" y="153" width="14" height="2" fill="#083F00" />
<rect x="188" y="153" width="14" height="134" fill="#083F00" />
<rect x="220" y="153" width="14" height="2" fill="#083F00" />
<rect x="92" y="155" width="14" height="14" fill="#4FBB0F" />
<rect x="108" y="155" width="14" height="14" fill="#4FBB0F" />
<rect x="124" y="155" width="14" height="14" fill="#4FBB0F" />
<rect x="140" y="155" width="14" height="14" fill="#4FBB0F" />
<rect x="156" y="155" width="14" height="14" fill="#4FBB0F" />
<rect x="172" y="155" width="14" height="14" fill="#4FBB0F" />
<rect x="220" y="155" width="14" height="14" fill="#4FBB0F" />
<rect x="92" y="169" width="14" height="2" fill="#083F00" />
<rect x="108" y="169" width="14" height="2" fill="#083F00" />
<rect x="124" y="169" width="14" height="2" fill="#083F00" />
<rect x="140" y="169" width="14" height="2" fill="#083F00" />
<rect x="156" y="169" width="14" height="2" fill="#083F00" />
<rect x="172" y="169" width="14" height="118" fill="#083F00" />
<rect x="220" y="169" width="14" height="2" fill="#083F00" />
<rect x="92" y="171" width="14" height="14" fill="#4FBB0F" />
<rect x="108" y="171" width="14" height="14" fill="#4FBB0F" />
<rect x="124" y="171" width="14" height="14" fill="#4FBB0F" />
<rect x="140" y="171" width="14" height="14" fill="#4FBB0F" />
<rect x="156" y="171" width="14" height="14" fill="#4FBB0F" />
<rect x="220" y="171" width="14" height="14" fill="#4FBB0F" />
<rect x="92" y="185" width="14" height="2" fill="#083F00" />
<rect x="108" y="185" width="14" height="2" fill="#083F00" />
<rect x="124" y="185" width="14" height="2" fill="#083F00" />
<rect x="140" y="185" width="14" height="2" fill="#083F00" />
<rect x="156" y="185" width="14" height="102" fill="#083F00" />
<rect x="220" y="185" width="14" height="2" fill="#083F00" />
<rect x="92" y="187" width="14" height="14" fill="#4FBB0F" />
<rect x="108" y="187" width="14" height="14" fill="#4FBB0F" />
<rect x="124" y="187" width="14" height="14" fill="#4FBB0F" />
<rect x="140" y="187" width="14" height="14" fill="#4FBB0F" />
<rect x="220" y="187" width="14" height="14" fill="#4FBB0F" />
<rect x="92" y="201" width="14" height="2" fill="#083F00" />
<rect x="108" y="201" width="14" height="2" fill="#083F00" />
<rect x="124" y="201" width="14" height="2" fill="#083F00" />
<rect x="140" y="201" width="14" height="86" fill="#083F00" />
<rect x="220" y="201" width="14" height="2" fill="#083F00" />
<rect x="92" y="203" width="14" height="14" fill="#4FBB0F" />
<rect x="108" y="203" width="14" height="14" fill="#4FBB0F" />
<rect x="124" y="203" width="14" height="14" fill="#4FBB0F" />
<rect x="220" y="203" width="14" height="14" fill="#4FBB0F" />
<rect x="92" y="217" width="14" height="2" fill="#083F00" />
<rect x="108" y="217" width="14" height="2" fill="#083F00" />
<rect x="124" y="217" width="14" height="70" fill="#083F00" />
<rect x="220" y="217" width="14" height="2" fill="#083F00" />
<rect x="92" y="219" width="14" height="14" fill="#4FBB0F" />
<rect x="108" y="219" width="14" height="14" fill="#4FBB0F" />
<rect x="220" y="219" width="14" height="14" fill="#4FBB0F" />
<rect x="92" y="233" width="14" height="54" fill="#083F00" />
<rect x="108" y="233" width="14" height="54" fill="#083F00" />
<rect x="220" y="233" width="14" height="54" fill="#083F00" />
</svg>