<?xml version="1.0" encoding="UTF-8" ?>
<svg version="1.1" width="300" height="300" xmlns="http://www.w3.org/2000/svg" shape-rendering="crispEdges">
<rect x="49" y="81" width="14" height="14" fill="#4FBB0F" />
<rect x="65" y="81" width="14" height="14" fill="#4FBB0F" />
<rect x="81" y="81" width="14" height="14" fill="#4FBB0F" />
<rect x="97" y="81" width="14" height="14" fill="#4FBB0F" />
<rect x="113" y="81" width="14" height="14" fill="#4FBB0F" />
<rect x="129" y="81" width="14" height="14" fill="#4FBB0F" />
<rect x="145" y="81" width="14" height="14" fill="#4FBB0F" />
<rect x="161" y="81" width="14" height="14" fill="#4FBB0F" />
<rect x="193" y="81" width="14" height="14" fill="#4FBB0F" />
<rect x="209" y="81" width="14" height="14" fill="#4FBB0F" />
<rect x="225" y="81" width="14" height="14" fill="#4FBB0F" />
<rect x="49" y="97" width="14" height="14" fill="#4FBB0F" />
<rect x="65" y="97" width="14" height="14" fill="#4FBB0F" />
<rect x="81" y="97" width="14" height="14" fill="#4FBB0F" />
<rect x="97" y="97" width="14" height="14" fill="#4FBB0F" />
<rect x="113" y="97" width="14" height="14" fill="#4FBB0F" />
<rect x="129" y="97" width="14" height="14" fill="#4FBB0F" />
<rect x="145" y="97" width="14" height="14" fill="#4FBB0F" />
<rect x="161" y="97" width="14" height="14" fill="#4FBB0F" />
<rect x="193" y="97" width="14" height="14" fill="#4FBB0F" />
<rect x="209" y="97" width="14" height="14" fill="#4FBB0F" />
<rect x="225" y="97" width="14" height="14" fill="#4FBB0F" />
<rect x="241" y="97" width="14" height="14" fill="#4FBB0F" />
<rect x="193" y="113" width="14" height="14" fill="#4FBB0F" />
<rect x="209" y="113" width="14" height="14" fill="#4FBB0F" />
<rect x="257" y="113" width="14" height="14" fill="#4FBB0F" />
<rect x="273" y="113" width="14" height="14" fill="#4FBB0F" />
<rect x="193" y="129" width="14" height="14" fill="#4FBB0F" />
<rect x="209" y="129" width="14" height="14" fill="#4FBB0F" />
<rect x="49" y="145" width="14" height="14" fill="#4FBB0F" />
<rect x="65" y="145" width="14" height="14" fill="#4FBB0F" />
<rect x="81" y="145" width="14" height="14" fill="#4FBB0F" />
<rect x="97" y="145" width="14" height="14" fill="#4FBB0F" />
<rect x="113" y="145" width="14" height="14" fill="#4FBB0F" />
<rect x="129" y="145" width="14" height="14" fill="#4FBB0F" />
<rect x="145" y="145" width="14" height="14" fill="#4FBB0F" />
<rect x="161" y="145" width="14" height="14" fill="#4FBB0F" />
<rect x="193" y="145" width="14" height="14" fill="#4FBB0F" />
<rect x="209" y="145" width="14" height="14" fill="#4FBB0F" />
<rect x="49" y="161" width="14" height="14" fill="#4FBB0F" />
<rect x="65" y="161" width="14" height="14" fill="#4FBB0F" />
<rect x="81" y="161" width="14" height="14" fill="#4FBB0F" />
<rect x="97" y="161" width="14" height="14" fill="#4FBB0F" />
<rect x="113" y="161" width="14" height="14" fill="#4FBB0F" />
<rect x="129" y="161" width="14" height="14" fill="#4FBB0F" />
<rect x="145" y="161" width="14" height="14" fill="#4FBB0F" />
<rect x="193" y="161" width="14" height="14" fill="#4FBB0F" />
<rect x="209" y="161" width="14" height="14" fill="#4FBB0F" />
<rect x="161" y="177" width="14" height="14" fill="#4FBB0F" />
<rect x="177" y="177" width="14" height="14" fill="#4FBB0F" />
<rect x="193" y="177" width="14" height="14" fill="#4FBB0F" />
<rect x="209" y="177" width="14" height="14" fill="#4FBB0F" />
<rect x="225" y="177" width="14" height="14" fill="#4FBB0F" />
<rect x="145" y="193" width="14" height="14" fill="#4FBB0F" />
<rect x="161" y="193" width="14" height="14" fill="#4FBB0F" />
<rect x="177" y="193" width="14" height="14" fill="#4FBB0F" />
<rect x="193" y="193" width="14" height="14" fill="#4FBB0F" />
<rect x="209" y="193" width="14" height="14" fill="#4FBB0F" />
<rect x="225" y="193" width="14" height="14" fill="#4FBB0F" />
<rect x="49" y="209" width="14" height="14" fill="#4FBB0F" />
<rect x="65" y="209" width="14" height="14" fill="#4FBB0F" />
<rect x="81" y="209" width="14" height="14" fill="#4FBB0F" />
<rect x="97" y="209" width="14" height="14" fill="#4FBB0F" />
<rect x="113" y="209" width="14" height="14" fill="#4FBB0F" />
<rect x="145" y="209" width="14" height="14" fill="#4FBB0F" />
<rect x="161" y="209" width="14" height="14" fill="#4FBB0F" />
<rect x="177" y="209" width="14" height="14" fill="#4FBB0F" />
<rect x="193" y="209" width="14" height="14" fill="#4FBB0F" />
<rect x="209" y="209" width="14" height="14" fill="#4FBB0F" />
<rect x="225" y="209" width="14" height="14" fill="#4FBB0F" />
<rect x="209" y="224" width="14" height="14" fill="#4FBB0F" />
<rect x="49" y="225" width="14" height="14" fill="#4FBB0F" />
<rect x="65" y="225" width="14" height="14" fill="#4FBB0F" />
<rect x="81" y="225" width="14" height="14" fill="#4FBB0F" />
<rect x="97" y="225" width="14" height="14" fill="#4FBB0F" />
<rect x="113" y="225" width="14" height="14" fill="#4FBB0F" />
<rect x="145" y="225" width="14" height="14" fill="#4FBB0F" />
<rect x="161" y="225" width="14" height="14" fill="#4FBB0F" />
<rect x="177" y="225" width="14" height="14" fill="#4FBB0F" />
<rect x="193" y="225" width="14" height="14" fill="#4FBB0F" />
<rect x="161" y="241" width="14" height="14" fill="#4FBB0F" />
<rect x="177" y="241" width="14" height="14" fill="#4FBB0F" />
<rect x="193" y="241" width="14" height="14" fill="#4FBB0F" />
</svg>