<?xml version="1.0" encoding="UTF-8" ?>
<svg version="1.1" width="300" height="300" xmlns="http://www.w3.org/2000/svg" shape-rendering="crispEdges">
<rect x="17" y="49" width="14" height="14" fill="#4FBB0F" />
<rect x="33" y="49" width="14" height="14" fill="#4FBB0F" />
<rect x="17" y="65" width="14" height="14" fill="#4FBB0F" />
<rect x="33" y="65" width="14" height="14" fill="#4FBB0F" />
<rect x="49" y="65" width="14" height="14" fill="#4FBB0F" />
<rect x="17" y="81" width="14" height="14" fill="#4FBB0F" />
<rect x="33" y="81" width="14" height="14" fill="#4FBB0F" />
<rect x="49" y="81" width="14" height="14" fill="#4FBB0F" />
<rect x="65" y="81" width="14" height="14" fill="#4FBB0F" />
<rect x="17" y="97" width="14" height="14" fill="#4FBB0F" />
<rect x="33" y="97" width="14" height="14" fill="#4FBB0F" />
<rect x="49" y="97" width="14" height="14" fill="#4FBB0F" />
<rect x="65" y="97" width="14" height="14" fill="#4FBB0F" />
<rect x="81" y="97" width="14" height="14" fill="#4FBB0F" />
<rect x="17" y="113" width="14" height="14" fill="#4FBB0F" />
<rect x="33" y="113" width="14" height="14" fill="#4FBB0F" />
<rect x="49" y="113" width="14" height="14" fill="#4FBB0F" />
<rect x="65" y="113" width="14" height="14" fill="#4FBB0F" />
<rect x="81" y="113" width="14" height="14" fill="#4FBB0F" />
<rect x="97" y="113" width="14" height="14" fill="#4FBB0F" />
<rect x="17" y="129" width="14" height="14" fill="#4FBB0F" />
<rect x="33" y="129" width="14" height="14" fill="#4FBB0F" />
<rect x="49" y="129" width="14" height="14" fill="#4FBB0F" />
<rect x="65" y="129" width="14" height="14" fill="#4FBB0F" />
<rect x="81" y="129" width="14" height="14" fill="#4FBB0F" />
<rect x="97" y="129" width="14" height="14" fill="#4FBB0F" />
<rect x="113" y="129" width="14" height="14" fill="#4FBB0F" />
<rect x="17" y="145" width="14" height="14" fill="#4FBB0F" />
<rect x="33" y="145" width="14" height="14" fill="#4FBB0F" />
<rect x="49" y="145" width="14" height="14" fill="#4FBB0F" />
<rect x="65" y="145" width="14" height="14" fill="#4FBB0F" />
<rect x="81" y="145" width="14" height="14" fill="#4FBB0F" />
<rect x="97" y="145" width="14" height="14" fill="#4FBB0F" />
<rect x="17" y="161" width="14" height="14" fill="#4FBB0F" />
<rect x="33" y="161" width="14" height="14" fill="#4FBB0F" />
<rect x="49" y="161" width="14" height="14" fill="#4FBB0F" />
<rect x="65" y="161" width="14" height="14" fill="#4FBB0F" />
<rect x="81" y="161" width="14" height="14" fill="#4FBB0F" />
<rect x="17" y="177" width="14" height="14" fill="#4FBB0F" />
<rect x="33" y="177" width="14" height="14" fill="#4FBB0F" />
<rect x="49" y="177" width="14" height="14" fill="#4FBB0F" />
<rect x="65" y="177" width="14" height="14" fill="#4FBB0F" />
<rect x="17" y="193" width="14" height="14" fill="#4FBB0F" />
<rect x="33" y="193" width="14" height="14" fill="#4FBB0F" />
<rect x="49" y="193" width="14" height="14" fill="#4FBB0F" />
<rect x="17" y="209" width="14" height="14" fill="#4FBB0F" />
<rect x="33" y="209" width="14" height="14" fill="#4FBB0F" />
</svg>